<svg xmlns="http://www.w3.org/2000/svg" style="display: none;">
  <symbol id="icon-search" viewBox="0 0 50 50">
    <path d="M 21 3 C 11.622998 3 4 10.623005 4 20 C 4 29.376995 11.622998 37 21 37 C 24.712383 37 28.139151 35.791079 30.9375 33.765625 L 44.085938 46.914062 L 46.914062 44.085938 L 33.886719 31.058594 C 36.443536 28.083 38 24.223631 38 20 C 38 10.623005 30.377002 3 21 3 z M 21 5 C 29.296122 5 36 11.703883 36 20 C 36 28.296117 29.296122 35 21 35 C 12.703878 35 6 28.296117 6 20 C 6 11.703883 12.703878 5 21 5 z"/>
  </symbol>
  <symbol id="icon-sort" viewBox="0 0 24 24" fill="none">
    <path d="M4 6H20M7 12H17M11 18H13" stroke="#292929" stroke-linecap="round" stroke-linejoin="round" stroke-width="2" />
  </symbol>
  <symbol id="triangle" viewBox="0 0 386.257 386.257">
    <polygon points="0,96.879 193.129,289.379 386.257,96.879" />
  </symbol>
  <symbol id="warning-icon" viewBox="0 0 554.2 554.199">
    <path d="M538.5,386.199L356.5,70.8c-16.4-28.4-46.7-45.9-79.501-45.9c-32.8,0-63.1,17.5-79.5,45.9L12.3,391.6
		c-16.4,28.4-16.4,63.4,0,91.8C28.7,511.8,59,529.3,91.8,529.3H462.2c0.101,0,0.2,0,0.2,0c50.7,0,91.8-41.101,91.8-91.8
		C554.2,418.5,548.4,400.8,538.5,386.199z M316.3,416.899c0,21.7-16.7,38.3-39.2,38.3s-39.2-16.6-39.2-38.3V416
		c0-21.601,16.7-38.301,39.2-38.301S316.3,394.3,316.3,416V416.899z M317.2,158.7L297.8,328.1c-1.3,12.2-9.4,19.8-20.7,19.8
		s-19.4-7.7-20.7-19.8L237,158.6c-1.3-13.1,5.801-23,18-23H299.1C311.3,135.7,318.5,145.6,317.2,158.7z"/>
  </symbol>
</svg>
